<svg width="70.000000" height="74.375000" viewBox="0 0 70 74.375" fill="none" xmlns="http://www.w3.org/2000/svg" xmlns:xlink="http://www.w3.org/1999/xlink">
	<desc>
			Created with Pixso.
	</desc>
	<defs>
		<clipPath id="clip0_195">
			<rect id="logo" rx="0.000000" width="69.000000" height="73.375000" transform="translate(0.500000 0.500000)" fill="white" fill-opacity="0"/>
		</clipPath>
	</defs>
	<rect id="logo" rx="0.000000" width="69.000000" height="73.375000" transform="translate(0.500000 0.500000)" fill="#FFFFFF" fill-opacity="0"/>
	<g clip-path="url(#clip0_195)">
		<path id="Vector" d="M0 0L70 0L70 74.37L0 74.37L0 0Z" fill="#FFFFFF" fill-opacity="0" fill-rule="evenodd"/>
		<path id="Vector" d="M40.37 62.08C40.29 62.08 40.24 62.13 40.24 62.22L40.24 62.36C40.24 62.45 40.29 62.5 40.37 62.5L58.04 62.5C58.18 62.5 58.24 62.45 58.24 62.36L58.24 62.22C58.24 62.13 58.18 62.08 58.04 62.08L55.97 62.08C54.59 62.08 53.6 61.83 53.02 61.33C52.49 60.82 52.04 60 51.69 58.85C49.45 51.8 47.38 44.74 45.46 37.68C43.54 30.63 41.65 23.52 39.77 16.38C39.5 15.41 39.5 14.61 39.77 13.97C40.04 13.33 40.66 13.01 41.65 13.01L45.66 13.01C45.8 13.01 45.86 12.94 45.86 12.8L45.86 12.73C45.86 12.64 45.8 12.6 45.66 12.6L18.89 12.6C18.71 12.6 18.62 12.64 18.62 12.73L18.62 12.8C18.62 12.94 18.71 13.01 18.89 13.01L23.84 13.01C24.74 13.01 25.18 13.42 25.18 14.24C25.18 14.61 25.14 14.98 25.05 15.34C24.96 15.67 24.8 16.15 24.58 16.79C24.18 17.84 23.69 19.1 23.11 20.57C22.57 21.99 22.01 23.46 21.43 24.97C20.85 26.48 20.3 27.95 19.76 29.37C19.23 30.79 18.76 32.02 18.36 33.08C17.51 35.32 16.64 37.52 15.75 39.68C14.9 41.83 14.14 43.89 13.47 45.86C12.8 47.79 12.24 49.62 11.8 51.36C11.4 53.06 11.2 54.62 11.2 56.04C11.2 58.46 11.78 60.23 12.94 61.33C14.1 62.43 15.55 62.98 17.29 62.98C18.71 62.98 20.01 62.59 21.17 61.81C22.33 60.98 23.42 59.98 24.45 58.79C25.52 57.55 26.52 56.24 27.46 54.87C28.44 53.45 29.44 52.14 30.47 50.95C31.5 49.71 32.57 48.7 33.68 47.93C34.84 47.1 36.09 46.69 37.43 46.69C39.57 46.69 41.22 47.33 42.38 48.61C43.54 49.9 44.39 51.36 44.93 53.01C45.28 54.02 45.55 54.98 45.73 55.9C45.95 56.81 46.18 57.64 46.4 58.37C46.49 58.79 46.51 59.22 46.47 59.68C46.47 60.14 46.33 60.55 46.06 60.92C45.84 61.24 45.44 61.51 44.86 61.74C44.32 61.97 43.59 62.08 42.65 62.08L40.37 62.08ZM22.57 34.18C25.12 34.18 26.97 34.77 28.13 35.97C29.29 37.11 29.87 38.99 29.87 41.6L29.87 48.75C28.89 49.48 27.93 50.26 26.99 51.09C26.05 51.91 25.14 52.67 24.25 53.36C23.35 54.04 22.48 54.62 21.64 55.07C20.79 55.49 19.94 55.69 19.09 55.69C17.84 55.69 16.71 55.3 15.68 54.52C14.65 53.7 14.14 52.35 14.14 50.47C14.14 49.32 14.32 48.02 14.68 46.55C15.08 45.04 15.52 43.53 16.01 42.01C16.55 40.5 17.08 39.06 17.62 37.68C18.16 36.31 18.6 35.14 18.96 34.18L22.57 34.18ZM25.18 17.54C25.72 16.17 26.39 15.28 27.19 14.86C28.04 14.45 28.93 14.22 29.87 14.18L29.87 26.14C29.87 28.84 29.31 30.79 28.19 31.98C27.08 33.17 25.2 33.77 22.57 33.77L19.09 33.77C19.76 31.98 20.43 30.19 21.1 28.4C21.77 26.57 22.39 24.9 22.97 23.39C23.55 21.87 24.02 20.59 24.38 19.54C24.78 18.48 25.05 17.82 25.18 17.54ZM41.91 41.95C42 42.27 42.09 42.66 42.18 43.11C42.27 43.57 42.32 44.01 42.32 44.42C42.36 44.83 42.34 45.22 42.25 45.59C42.2 45.91 42.07 46.14 41.85 46.28C41.76 46.32 41.6 46.34 41.38 46.34C40.93 46.34 40.4 46.25 39.77 46.07C39.19 45.84 38.39 45.73 37.36 45.73C36.11 45.73 34.91 46 33.75 46.55C32.59 47.05 31.43 47.7 30.27 48.48L30.27 41.6C30.27 38.94 30.8 37.04 31.88 35.9C32.99 34.75 34.86 34.18 37.5 34.18L39.84 34.18C40.2 35.46 40.53 36.77 40.84 38.1C41.2 39.38 41.56 40.66 41.91 41.95ZM37.5 33.77C34.95 33.77 33.1 33.15 31.94 31.91C30.83 30.67 30.27 28.75 30.27 26.14L30.27 14.18C31.83 14.22 32.99 14.57 33.75 15.21C34.51 15.85 35.04 16.72 35.36 17.82C35.85 19.56 36.47 21.83 37.23 24.62C37.99 27.42 38.81 30.47 39.71 33.77L37.5 33.77Z" fill="#212529" fill-opacity="1.000000" fill-rule="nonzero"/>
	</g>
</svg>
