<svg width="39.000000" height="41.000000" viewBox="0 0 39 41" fill="none" xmlns="http://www.w3.org/2000/svg" xmlns:xlink="http://www.w3.org/1999/xlink">
	<desc>
			Created with Pixso.
	</desc>
	<defs>
		<clipPath id="clip0_347">
			<rect id="logo" rx="0.000000" width="38.000000" height="40.000000" transform="translate(0.500000 0.500000)" fill="white" fill-opacity="0"/>
		</clipPath>
	</defs>
	<rect id="logo" rx="0.000000" width="38.000000" height="40.000000" transform="translate(0.500000 0.500000)" fill="#FFFFFF" fill-opacity="0"/>
	<g clip-path="url(#clip0_347)">
		<path id="Vector" d="M0 0L39 0L39 41L0 41L0 0Z" fill="#FFFFFF" fill-opacity="0" fill-rule="evenodd"/>
		<path id="Vector" d="M22.12 34.5C22.07 34.5 22.05 34.52 22.05 34.57L22.05 34.65C22.05 34.7 22.07 34.73 22.12 34.73L31.88 34.73C31.96 34.73 32 34.7 32 34.65L32 34.57C32 34.52 31.96 34.5 31.88 34.5L30.74 34.5C29.97 34.5 29.43 34.36 29.11 34.08C28.81 33.8 28.57 33.34 28.37 32.7C27.14 28.78 25.99 24.86 24.93 20.94C23.87 17.02 22.82 13.07 21.79 9.1C21.64 8.56 21.64 8.12 21.79 7.76C21.94 7.4 22.28 7.22 22.82 7.22L25.04 7.22C25.12 7.22 25.15 7.19 25.15 7.11L25.15 7.07C25.15 7.02 25.12 7 25.04 7L10.25 7C10.15 7 10.1 7.02 10.1 7.07L10.1 7.11C10.1 7.19 10.15 7.22 10.25 7.22L12.99 7.22C13.48 7.22 13.72 7.45 13.72 7.91C13.72 8.12 13.7 8.32 13.65 8.52C13.6 8.7 13.52 8.97 13.39 9.33C13.17 9.91 12.9 10.61 12.58 11.43C12.28 12.22 11.97 13.03 11.65 13.87C11.33 14.71 11.02 15.53 10.73 16.32C10.43 17.11 10.17 17.79 9.95 18.38C9.48 19.63 9 20.85 8.51 22.05C8.04 23.24 7.62 24.39 7.25 25.48C6.88 26.55 6.57 27.57 6.33 28.54C6.11 29.48 6 30.35 6 31.14C6 32.49 6.32 33.47 6.96 34.08C7.6 34.69 8.4 35 9.36 35C10.15 35 10.86 34.78 11.51 34.35C12.15 33.89 12.75 33.33 13.32 32.66C13.91 31.98 14.46 31.25 14.98 30.49C15.52 29.7 16.08 28.97 16.65 28.31C17.21 27.62 17.81 27.06 18.42 26.63C19.06 26.17 19.75 25.94 20.49 25.94C21.68 25.94 22.59 26.3 23.23 27.01C23.87 27.72 24.34 28.54 24.64 29.46C24.83 30.02 24.98 30.55 25.08 31.06C25.2 31.57 25.33 32.03 25.45 32.44C25.5 32.66 25.51 32.91 25.49 33.16C25.49 33.42 25.41 33.65 25.26 33.85C25.14 34.03 24.92 34.18 24.6 34.31C24.3 34.43 23.9 34.5 23.38 34.5L22.12 34.5ZM12.28 18.99C13.69 18.99 14.71 19.32 15.35 19.98C15.99 20.62 16.31 21.66 16.31 23.12L16.31 27.09C15.77 27.5 15.24 27.93 14.72 28.39C14.21 28.84 13.7 29.27 13.21 29.65C12.71 30.03 12.23 30.35 11.76 30.6C11.3 30.83 10.83 30.95 10.36 30.95C9.67 30.95 9.04 30.73 8.47 30.3C7.91 29.84 7.62 29.09 7.62 28.04C7.62 27.41 7.72 26.68 7.92 25.87C8.14 25.03 8.39 24.18 8.66 23.34C8.95 22.5 9.25 21.7 9.55 20.94C9.84 20.17 10.09 19.52 10.29 18.99L12.28 18.99ZM13.72 9.75C14.02 8.98 14.39 8.48 14.83 8.26C15.3 8.03 15.8 7.9 16.31 7.87L16.31 14.52C16.31 16.02 16.01 17.11 15.39 17.77C14.77 18.43 13.74 18.76 12.28 18.76L10.36 18.76C10.73 17.77 11.1 16.77 11.47 15.78C11.84 14.76 12.18 13.83 12.5 12.99C12.82 12.15 13.08 11.44 13.28 10.85C13.5 10.27 13.65 9.9 13.72 9.75ZM22.97 23.31C23.02 23.48 23.07 23.7 23.12 23.96C23.17 24.21 23.19 24.45 23.19 24.68C23.22 24.91 23.21 25.13 23.16 25.33C23.13 25.51 23.06 25.64 22.93 25.71C22.88 25.74 22.8 25.75 22.67 25.75C22.43 25.75 22.13 25.7 21.79 25.6C21.47 25.47 21.02 25.41 20.46 25.41C19.77 25.41 19.1 25.56 18.46 25.87C17.82 26.15 17.18 26.5 16.54 26.93L16.54 23.12C16.54 21.64 16.83 20.58 17.42 19.94C18.04 19.31 19.08 18.99 20.53 18.99L21.82 18.99C22.02 19.7 22.21 20.43 22.38 21.17C22.58 21.88 22.77 22.59 22.97 23.31ZM20.53 18.76C19.12 18.76 18.1 18.42 17.46 17.73C16.84 17.04 16.54 15.97 16.54 14.52L16.54 7.87C17.4 7.9 18.04 8.09 18.46 8.45C18.88 8.8 19.17 9.29 19.35 9.9C19.62 10.87 19.96 12.13 20.38 13.68C20.8 15.23 21.26 16.93 21.75 18.76L20.53 18.76Z" fill="#212529" fill-opacity="1.000000" fill-rule="nonzero"/>
	</g>
</svg>
