<svg width="32.000000" height="32.000000" viewBox="0 0 32 32" fill="none" xmlns="http://www.w3.org/2000/svg" xmlns:xlink="http://www.w3.org/1999/xlink">
	<desc>
			Created with Pixso.
	</desc>
	<defs>
		<clipPath id="clip0_275">
			<rect id="icon" rx="0.000000" width="31.000000" height="31.000000" transform="translate(0.500000 0.500000)" fill="white" fill-opacity="0"/>
		</clipPath>
	</defs>
	<rect id="icon" rx="0.000000" width="31.000000" height="31.000000" transform="translate(0.500000 0.500000)" fill="#FFFFFF" fill-opacity="0"/>
	<g clip-path="url(#clip0_275)">
		<path id="Vector" d="M13.31 4.17L13.31 14.17C13.31 21.88 8.33 27.11 1.33 28.52L0 25.61C3.24 24.37 5.33 20.69 5.33 17.7L0 17.7L0 4.17L13.31 4.17ZM32 4.17L32 14.17C32 21.88 27 27.11 20 28.52L18.67 25.61C21.91 24.37 24 20.69 24 17.7L18.68 17.7L18.68 4.17L32 4.17Z" fill="#212529" fill-opacity="1.000000" fill-rule="nonzero"/>
	</g>
</svg>
